<svg xmlns="http://www.w3.org/2000/svg" width="45" height="25" viewBox="0 0 45 25">
    <defs>
        <linearGradient id="prefix__a" x1="2.099%" x2="101.636%" y1="47.096%" y2="51.971%">
            <stop offset="0%" stop-color="#101C50"/>
            <stop offset="23.6%" stop-color="#0D267A"/>
            <stop offset="49.73%" stop-color="#085AA4"/>
            <stop offset="65.49%" stop-color="#058BBF"/>
            <stop offset="100%" stop-color="#B1FFFF"/>
        </linearGradient>
    </defs>
    <g fill="none">
        <path fill="#FFF" d="M20.305 16.863l.053.008c.403.053.799.128 1.102.264.281.124.445.281.595.56.229.423.244 1.02.037 1.469-.154.335-.493.615-.802.764-.315.148-.653.24-1 .271-.649.063-1.303-.054-1.89-.338-.338-.165-.75-.449-.959-.815-.158-.273-.143-.613.038-.872.297-.405.932-.495 1.411-.478.365.014 1.022.127 1.369.25.096.035.45.173.512.236.047.042.067.106.052.167-.079.243-.667.37-.837.396-.455.069-.691-.103-1.208-.307-.138-.057-.283-.097-.43-.118-.235-.023-.518.043-.563.3-.023.132.132.255.25.307.245.11.51.166.776.166.807.013 1.714-.12 2.373-.587.09-.064.179-.158.18-.278.002-.24-.418-.386-.418-.386-.445-.186-1.268-.276-1.69-.311-.445-.038-1.143-.096-1.31-.121-.176-.019-.347-.061-.51-.126-.164-.075-.288-.216-.341-.388-.077-.303.021-.675.19-.916.44-.634 1.473-.875 2.244-.97.747-.093 1.954-.092 2.687.298.113.06.171.117.147.237-.048.228-.218.374-.425.439-.218.068-.667.096-.864.108-.884.05-1.955.023-2.794.253-.066.02-.18.05-.218.09-.131.144.245.185.326.202.017.004.035.007.053.009l1.86.219m-5.255-3.941s.143-.216.264-.38c.273-.35.58-.675.915-.967.092-.078.2-.166.2-.166s-.169.017-.264.036c-.227.045-.56.265-.726.409-.274.234-.575.616-.439.955.02.048.05.113.05.113m1.525.408c.427-.03.842-.155 1.215-.365.37-.207.916-.611.859-1.087-.017-.145-.11-.269-.246-.324-.164-.072-.25-.06-.462 0-.129.034-.253.087-.367.156-.425.247-1.028.775-1.355 1.197-.075.1-.152.211-.211.287-.038.047-.067.09-.063.102.012.047.46.043.628.031m-1.102.81c-.045.047-.092.16-.14.243-.029.047-.065.09-.106.124-.113.083-.208.087-.317-.01-.153-.14-.242-.338-.247-.546-.004-.089.012-.186-.005-.261-.028-.127-.154-.257-.222-.377-.086-.17-.139-.356-.154-.547-.028-.499.235-.958.576-1.32.364-.378.8-.676 1.284-.878.463-.196 1.141-.328 1.649-.152.196.07.372.19.511.345.02.03.043.057.07.08.042.015.085.024.13.029.177.041.345.12.49.232.191.165.296.323.344.552.098.461-.168.967-.47 1.275-.518.528-1.03.902-1.69 1.162-.29.113-.744.22-1.074.19-.103-.01-.208-.036-.308-.043-.087-.013-.173-.036-.257-.066-.025-.019-.056-.035-.062-.029m.589 1.02c.027.005.053.013.078.023.232.088.328.303.385.539.133.548.19 1.76.211 2.236.017.356.025.707.04 1.056.013.299.037.695-.025.975-.025.112-.092.211-.186.277-.11.07-.362.076-.5.047-.34-.07-.45-.289-.499-.625-.115-.802-.06-2.377.009-3.042.023-.219.106-.922.22-1.215.039-.1.122-.3.267-.271M5.715 16.497s-.506.036-.854.074c-.443.048-1.276.192-1.756.364-.144.052-.437.173-.463.322-.026.148.069.273.175.398.061.072.408.406.506.487.408.34 1.235.866 1.844 1.121.211.087.556.211.556.211s-.026-.986-.021-1.957c0-.513.013-1.02.013-1.02m9.28.393c.028.264-.04.766-.054.831-.037.186-.087.368-.15.546-.085.192-.178.38-.281.563-.22.36-.487.687-.795.974-.871.753-2.219 1.182-3.377 1.324-.839.099-1.688.074-2.52-.074-.287-.053-.712-.15-.712-.15s0 .17-.013.29c-.015.084-.038.166-.07.245-.058.12-.173.202-.305.217-.174.033-.359.044-.52-.025-.264-.111-.36-.359-.405-.644-.038-.229-.077-.625-.077-.625s-.197-.094-.362-.176c-.494-.245-.965-.534-1.409-.863-.116-.087-.617-.506-.728-.61-.312-.296-.59-.588-.801-.963-.165-.294-.212-.554-.088-.866.174-.433.795-.76 1.22-.945.313-.138 1.284-.455 1.687-.514.19-.028.486-.08.504-.092.007-.005.013-.01.018-.017.01-.013.025-.442.022-.599-.003-.157.114-1.168.152-1.382.02-.116.106-.563.197-.68.059-.079.163-.072.248-.02.462.287.602 1.285.637 1.792.02.31.03.774.03.774s.529-.015.858-.006c.334.015.666.052.996.11.422.068 1.243.247 1.714.485.388.197.751.529.869.88.11.321.093.543-.074.834-.187.328-.541.571-.9.591-.106.006-.509-.047-.634-.143-.045-.04-.05-.107-.011-.153.1-.064.205-.122.312-.175.052-.028.101-.063.145-.103.093-.08.176-.17.166-.275-.013-.136-.158-.22-.294-.274-.643-.256-1.928-.467-2.549-.504-.242-.015-.588-.027-.588-.027l.073 3.428s.285.053.511.091c.129.02.677.069.822.073 1.11.03 2.344-.07 3.361-.55.446-.212.856-.471 1.166-.825.42-.493.625-1.134.566-1.78-.062-.731-.577-1.599-.988-2.128-1.086-1.396-2.947-2.545-4.585-3.218-1.672-.687-3.324-1.083-5.099-1.149-.457-.017-1.454.006-1.958.146-.072.02-.145.044-.212.06-.055.014-.109.036-.158.066-.009.007-.017.015-.025.024 0 0 .031.017.06.03.054.023.28.037.395.059.106.02.212.074.256.15.043.077.046.13-.003.19-.114.14-.544.115-.734.085-.19-.03-.441-.091-.486-.264-.053-.202.043-.4.147-.58.208-.367.506-.557.943-.676.65-.173 1.315-.278 1.987-.312 1.324-.053 2.578.182 3.861.571.821.254 1.623.566 2.4.932.6.297 1.184.625 1.75.984.14.093.965.7 1.094.806.267.219.617.533.87.784.49.486 1.1 1.23 1.396 1.821.071.142.126.28.218.444.074.16.137.323.189.49.023.096.055.237.06.242.006.054.071.345.064.454l.001.001zm16.652-.758c-.62.143-2.252.222-2.252.222l-.206.645s.815-.07 1.409-.008c0 0 .192-.023.214.218.004.155-.003.31-.019.465 0 0-.012.145-.219.182-.223.038-1.756.097-1.756.097l-.249.84s-.092.194.115.139c.192-.053 1.799-.353 2.007-.31.224.056.472.355.4.627-.085.338-1.69 1.36-2.665 1.29 0 0-.513.033-.947-.66-.404-.66.153-1.91.153-1.91s-.255-.583-.07-.78c0 0 .11-.1.431-.123l.394-.814s-.448.03-.714-.299c-.248-.313-.269-.456-.079-.542.204-.101 2.068-.441 3.351-.398 0 0 .446-.044.833.73 0 0 .187.313-.131.388v.001zm-4.826 3.126c-.164.387-.599.8-1.138.543-.54-.256-1.381-1.993-1.381-1.993s-.322-.648-.385-.631c0 0-.069-.126-.112.581-.042.707.009 2.079-.272 2.295-.264.217-.589.13-.756-.123-.152-.25-.215-.845-.132-1.884.097-1.044.34-2.154.65-2.5.31-.345.557-.094.653-.003 0 0 .415.375 1.096 1.476l.12.203s.621 1.04.688 1.038c0 0 .05.048.095.014.065-.019.039-.353.039-.353s-.129-1.133-.694-3.052c-.05-.15-.06-.31-.028-.464.057-.226.285-.12.285-.12s.876.441 1.301 1.868c.426 1.428.14 2.716-.028 3.105h-.001zm9.435-.853c-.4.696-1.526 2.154-3.023 1.81-.494 1.198-.91 2.412-1.147 4.225 0 0-.053.353-.346.23-.29-.102-.768-.584-.866-1.253-.105-.877.287-2.36 1.086-4.062-.233-.378-.392-.92-.256-1.69 0 0 .2-1.43 1.637-2.72 0 0 .172-.148.272-.102.11.046.059.511-.028.74-.087.227-.73 1.33-.73 1.33s-.399.749-.287 1.339c.754-1.158 2.467-3.494 3.528-2.758.356.255.52.81.521 1.408 0 .525-.127 1.084-.36 1.502h-.001v.001zm-.31-1.835s-.06-.461-.51.046c-.386.428-1.085 1.23-1.647 2.32.59-.067 1.16-.387 1.33-.55.28-.248.932-.922.827-1.816zm8.557-.106H41.76c-.054-.932-.169-1.86-.344-2.776-.018-.097-.102-.168-.2-.168h-.634c-.056 0-.109.026-.144.069-.035.043-.05.099-.039.153.18.899.297 1.808.352 2.722h-2.642c-.122 0-.222.1-.222.222v.57c0 .123.1.223.222.224h2.678c0 .14.003.266.003.385.004.757-.034 1.513-.116 2.266-.007.059.012.117.053.16.039.044.094.07.152.07h.587c.115 0 .21-.087.221-.2.08-.763.118-1.528.115-2.294 0-.118 0-.245-.003-.385h2.706c.123 0 .223-.1.223-.224v-.57c0-.06-.024-.117-.066-.159-.042-.042-.099-.065-.158-.065h-.001z"/>
        <path fill="url(#prefix__a)" d="M41.043 12.18C38.405 5.697 32.4 1.203 25.437.5 18.473-.202 11.692 3.002 7.813 8.827c-.039.058-.048.13-.026.195.022.066.074.117.14.14l.491.166c.029.009.058.014.088.014.092 0 .177-.045.228-.121 3.329-4.908 8.875-7.847 14.806-7.846 7.192 0 13.686 4.305 16.489 10.929.04.095.134.158.238.158h.587c.068 0 .132-.034.17-.09.038-.057.045-.129.02-.192h-.001z"/>
    </g>
</svg>
